<svg width="75" height="60" viewBox="0 0 75 60" fill="none" xmlns="http://www.w3.org/2000/svg">
<g clip-path="url(#clip0_1870_1003)">
<path fill-rule="evenodd" clip-rule="evenodd" d="M38.8217 12.084H39.0117C42.86 12.084 45.875 12.084 48.2283 12.4007C50.635 12.724 52.535 13.4007 54.0267 14.8907C55.5183 16.3823 56.1933 18.2823 56.5167 20.6907C56.8333 23.0423 56.8333 26.0573 56.8333 29.9057V30.0007H56.8167C56.8333 30.9657 56.8333 32.0506 56.8333 33.2773V33.3907C56.8333 35.6757 56.8333 37.469 56.7167 38.909C56.5967 40.3756 56.3483 41.5873 55.7883 42.684C54.8695 44.4873 53.4034 45.9535 51.6 46.8723C50.5033 47.4323 49.2917 47.6807 47.825 47.799C46.385 47.9173 44.5917 47.9173 42.3067 47.9173H35.5267C33.2417 47.9173 31.4483 47.9173 30.0083 47.8007C28.5417 47.6806 27.33 47.4323 26.2333 46.8723C24.43 45.9535 22.9638 44.4873 22.045 42.684C21.485 41.5873 21.2383 40.3756 21.1183 38.909C21 37.469 21 35.6757 21 33.3907V33.2773C21 32.0506 21 30.9657 21.0167 30.0007H21V29.9057C21 26.0573 21 23.0423 21.3167 20.689C21.64 18.2823 22.3167 16.3823 23.8067 14.8907C25.2983 13.399 27.1983 12.724 29.6067 12.4007C31.9583 12.084 34.9733 12.084 38.8217 12.084ZM23.72 21.6457C24.452 20.8969 25.3009 20.2721 26.2333 19.7957C27.33 19.2357 28.5417 18.989 30.0083 18.869C31.4483 18.7507 33.2417 18.7507 35.5267 18.7507H42.3067C44.5917 18.7507 46.385 18.7507 47.825 18.8673C49.2917 18.989 50.5033 19.2357 51.6 19.7957C52.5324 20.2721 53.3813 20.8969 54.1133 21.6457C54.0919 21.4381 54.0674 21.2308 54.04 21.024C53.7533 18.8923 53.2067 17.6073 52.2583 16.6573C51.3083 15.709 50.025 15.164 47.8933 14.8773C45.7267 14.5873 42.88 14.584 38.9167 14.584C34.9533 14.584 32.1067 14.5873 29.94 14.8773C27.8083 15.164 26.5233 15.7107 25.5733 16.659C24.625 17.609 24.08 18.8923 23.7933 21.024C23.7667 21.224 23.7422 21.4312 23.72 21.6457ZM30.2117 21.3607C28.9 21.4673 28.0533 21.674 27.3683 22.0223C26.0349 22.7015 24.9509 23.7856 24.2717 25.119C23.9217 25.804 23.7167 26.6507 23.61 27.9623C23.5017 29.289 23.5 30.979 23.5 33.334C23.5 35.689 23.5 37.379 23.61 38.7057C23.7167 40.0173 23.9233 40.864 24.2717 41.5507C24.9512 42.8834 26.0352 43.9669 27.3683 44.6457C28.0533 44.9957 28.9 45.2006 30.2117 45.3073C31.5383 45.4156 33.2283 45.4173 35.5833 45.4173H42.25C44.6033 45.4173 46.295 45.4173 47.6217 45.3073C48.9333 45.2006 49.78 44.994 50.4667 44.6457C51.7992 43.9666 52.8826 42.8832 53.5617 41.5507C53.9117 40.864 54.1167 40.0173 54.2233 38.7057C54.3317 37.379 54.3333 35.689 54.3333 33.334C54.3333 30.979 54.3333 29.289 54.2233 27.9623C54.1167 26.6507 53.91 25.804 53.5617 25.119C52.8829 23.7858 51.7995 22.7018 50.4667 22.0223C49.78 21.6723 48.9333 21.4673 47.6217 21.3607C46.295 21.2523 44.605 21.2507 42.25 21.2507H35.5833C33.2283 21.2507 31.5383 21.2507 30.2117 21.3607ZM43.9167 29.0673C44.1635 29.288 44.3126 29.5977 44.3314 29.9283C44.3501 30.2589 44.237 30.5834 44.0167 30.8307L38.0633 37.4973C37.9461 37.6287 37.8024 37.7338 37.6417 37.8057C37.481 37.8777 37.3069 37.9149 37.1308 37.9149C36.9548 37.9149 36.7807 37.8777 36.62 37.8057C36.4593 37.7338 36.3156 37.6287 36.1983 37.4973L33.8183 34.8307C33.7008 34.7097 33.6089 34.5663 33.5483 34.409C33.4876 34.2516 33.4594 34.0836 33.4654 33.9151C33.4713 33.7466 33.5113 33.581 33.583 33.4283C33.6546 33.2757 33.7564 33.1391 33.8822 33.0268C34.008 32.9145 34.1552 32.8288 34.315 32.7749C34.4747 32.721 34.6438 32.7 34.8119 32.7131C34.98 32.7262 35.1437 32.7732 35.2932 32.8513C35.4427 32.9294 35.5748 33.0369 35.6817 33.1673L37.1317 34.789L42.15 29.1673C42.3707 28.9205 42.6804 28.7713 43.011 28.7526C43.3416 28.7338 43.6661 28.847 43.9133 29.0673" fill="white"/>
</g>
<defs>
<clipPath id="clip0_1870_1003">
<rect width="37" height="39.8333" fill="white" transform="translate(19 10.084)"/>
</clipPath>
</defs>
</svg>
