<svg width="20" height="20" viewBox="0 0 20 20" fill="none" xmlns="http://www.w3.org/2000/svg">
<g id="bell-01">
<path id="Icon" d="M7.79514 17.4998C8.38275 18.0185 9.15462 18.3332 10 18.3332C10.8454 18.3332 11.6172 18.0185 12.2048 17.4998M15 6.6665C15 5.34042 14.4732 4.06865 13.5355 3.13097C12.5978 2.19329 11.3261 1.6665 10 1.6665C8.67391 1.6665 7.40214 2.19329 6.46446 3.13097C5.52678 4.06865 5 5.34042 5 6.6665C5 9.24166 4.35039 11.0048 3.62472 12.171C3.0126 13.1547 2.70654 13.6466 2.71777 13.7838C2.73019 13.9357 2.76238 13.9937 2.88481 14.0845C2.99538 14.1665 3.49382 14.1665 4.49071 14.1665H15.5093C16.5062 14.1665 17.0046 14.1665 17.1152 14.0845C17.2376 13.9937 17.2698 13.9357 17.2822 13.7838C17.2934 13.6466 16.9874 13.1547 16.3753 12.171C15.6496 11.0048 15 9.24166 15 6.6665Z" stroke="#667085" stroke-width="1.66667" stroke-linecap="round" stroke-linejoin="round"/>
</g>
</svg>
